<svg xmlns="http://www.w3.org/2000/svg" version="1.1" xmlns:xlink="http://www.w3.org/1999/xlink" xmlns:svgjs="http://svgjs.dev/svgjs" width="1440" height="560" preserveAspectRatio="none" viewBox="0 0 1440 560"><g mask="url(&quot;#SvgjsMask1300&quot;)" fill="none"><rect width="1440" height="560" x="0" y="0" fill="url(&quot;#SvgjsRadialGradient1301&quot;)"></rect><path d="M237.38 307.55L302.33 345.05L302.33 420.05L237.38 457.55L172.43 420.05L172.43 345.05zM302.33 -29.95L367.29 7.55L367.29 82.55L302.33 120.05L237.38 82.55L237.38 7.55zM562.15 -29.95L627.1 7.55L627.1 82.55L562.15 120.05L497.2 82.55L497.2 7.55zM627.1 532.55L692.06 570.05L692.06 645.05L627.1 682.55L562.15 645.05L562.15 570.05zM1211.69 420.05L1276.64 457.55L1276.64 532.55L1211.69 570.05L1146.73 532.55L1146.73 457.55z" stroke="rgba(0, 45, 8, 1)" stroke-width="2"></path><path d="M229.88 307.55 a7.5 7.5 0 1 0 15 0 a7.5 7.5 0 1 0 -15 0zM294.83 345.05 a7.5 7.5 0 1 0 15 0 a7.5 7.5 0 1 0 -15 0zM294.83 420.05 a7.5 7.5 0 1 0 15 0 a7.5 7.5 0 1 0 -15 0zM229.88 457.55 a7.5 7.5 0 1 0 15 0 a7.5 7.5 0 1 0 -15 0zM164.93 420.05 a7.5 7.5 0 1 0 15 0 a7.5 7.5 0 1 0 -15 0zM164.93 345.05 a7.5 7.5 0 1 0 15 0 a7.5 7.5 0 1 0 -15 0zM294.83 -29.95 a7.5 7.5 0 1 0 15 0 a7.5 7.5 0 1 0 -15 0zM359.79 7.55 a7.5 7.5 0 1 0 15 0 a7.5 7.5 0 1 0 -15 0zM359.79 82.55 a7.5 7.5 0 1 0 15 0 a7.5 7.5 0 1 0 -15 0zM294.83 120.05 a7.5 7.5 0 1 0 15 0 a7.5 7.5 0 1 0 -15 0zM229.88 82.55 a7.5 7.5 0 1 0 15 0 a7.5 7.5 0 1 0 -15 0zM229.88 7.55 a7.5 7.5 0 1 0 15 0 a7.5 7.5 0 1 0 -15 0zM554.65 -29.95 a7.5 7.5 0 1 0 15 0 a7.5 7.5 0 1 0 -15 0zM619.6 7.55 a7.5 7.5 0 1 0 15 0 a7.5 7.5 0 1 0 -15 0zM619.6 82.55 a7.5 7.5 0 1 0 15 0 a7.5 7.5 0 1 0 -15 0zM554.65 120.05 a7.5 7.5 0 1 0 15 0 a7.5 7.5 0 1 0 -15 0zM489.7 82.55 a7.5 7.5 0 1 0 15 0 a7.5 7.5 0 1 0 -15 0zM489.7 7.55 a7.5 7.5 0 1 0 15 0 a7.5 7.5 0 1 0 -15 0zM619.6 532.55 a7.5 7.5 0 1 0 15 0 a7.5 7.5 0 1 0 -15 0zM684.56 570.05 a7.5 7.5 0 1 0 15 0 a7.5 7.5 0 1 0 -15 0zM684.56 645.05 a7.5 7.5 0 1 0 15 0 a7.5 7.5 0 1 0 -15 0zM619.6 682.55 a7.5 7.5 0 1 0 15 0 a7.5 7.5 0 1 0 -15 0zM554.65 645.05 a7.5 7.5 0 1 0 15 0 a7.5 7.5 0 1 0 -15 0zM554.65 570.05 a7.5 7.5 0 1 0 15 0 a7.5 7.5 0 1 0 -15 0zM1204.19 420.05 a7.5 7.5 0 1 0 15 0 a7.5 7.5 0 1 0 -15 0zM1269.14 457.55 a7.5 7.5 0 1 0 15 0 a7.5 7.5 0 1 0 -15 0zM1269.14 532.55 a7.5 7.5 0 1 0 15 0 a7.5 7.5 0 1 0 -15 0zM1204.19 570.05 a7.5 7.5 0 1 0 15 0 a7.5 7.5 0 1 0 -15 0zM1139.23 532.55 a7.5 7.5 0 1 0 15 0 a7.5 7.5 0 1 0 -15 0zM1139.23 457.55 a7.5 7.5 0 1 0 15 0 a7.5 7.5 0 1 0 -15 0z" fill="rgba(0, 45, 8, 1)"></path><path d="M24.17 -33.87L71.8 -6.37L71.8 48.63L24.17 76.13L-23.46 48.63L-23.46 -6.37zM71.8 48.63L119.44 76.13L119.44 131.13L71.8 158.63L24.17 131.13L24.17 76.13zM119.44 461.13L167.07 488.63L167.07 543.63L119.44 571.13L71.8 543.63L71.8 488.63zM214.7 -33.87L262.33 -6.37L262.33 48.63L214.7 76.13L167.07 48.63L167.07 -6.37zM262.33 543.63L309.97 571.13L309.97 626.13L262.33 653.63L214.7 626.13L214.7 571.13zM309.97 -33.87L357.6 -6.37L357.6 48.63L309.97 76.13L262.33 48.63L262.33 -6.37zM357.6 213.63L405.23 241.13L405.23 296.13L357.6 323.63L309.97 296.13L309.97 241.13zM357.6 378.63L405.23 406.13L405.23 461.13L357.6 488.63L309.97 461.13L309.97 406.13zM405.23 -33.87L452.86 -6.37L452.86 48.63L405.23 76.13L357.6 48.63L357.6 -6.37zM452.86 48.63L500.5 76.13L500.5 131.13L452.86 158.63L405.23 131.13L405.23 76.13zM405.23 131.13L452.86 158.63L452.86 213.63L405.23 241.13L357.6 213.63L357.6 158.63zM452.86 378.63L500.5 406.13L500.5 461.13L452.86 488.63L405.23 461.13L405.23 406.13zM548.13 48.63L595.76 76.13L595.76 131.13L548.13 158.63L500.5 131.13L500.5 76.13zM500.5 131.13L548.13 158.63L548.13 213.63L500.5 241.13L452.86 213.63L452.86 158.63zM500.5 296.13L548.13 323.63L548.13 378.63L500.5 406.13L452.86 378.63L452.86 323.63zM548.13 378.63L595.76 406.13L595.76 461.13L548.13 488.63L500.5 461.13L500.5 406.13zM500.5 461.13L548.13 488.63L548.13 543.63L500.5 571.13L452.86 543.63L452.86 488.63zM548.13 543.63L595.76 571.13L595.76 626.13L548.13 653.63L500.5 626.13L500.5 571.13zM595.76 -33.87L643.4 -6.37L643.4 48.63L595.76 76.13L548.13 48.63L548.13 -6.37zM595.76 131.13L643.4 158.63L643.4 213.63L595.76 241.13L548.13 213.63L548.13 158.63zM643.4 213.63L691.03 241.13L691.03 296.13L643.4 323.63L595.76 296.13L595.76 241.13zM595.76 461.13L643.4 488.63L643.4 543.63L595.76 571.13L548.13 543.63L548.13 488.63zM643.4 543.63L691.03 571.13L691.03 626.13L643.4 653.63L595.76 626.13L595.76 571.13zM691.03 -33.87L738.66 -6.37L738.66 48.63L691.03 76.13L643.4 48.63L643.4 -6.37zM738.66 48.63L786.29 76.13L786.29 131.13L738.66 158.63L691.03 131.13L691.03 76.13zM786.29 461.13L833.93 488.63L833.93 543.63L786.29 571.13L738.66 543.63L738.66 488.63zM881.56 131.13L929.19 158.63L929.19 213.63L881.56 241.13L833.93 213.63L833.93 158.63zM1024.46 48.63L1072.09 76.13L1072.09 131.13L1024.46 158.63L976.82 131.13L976.82 76.13zM976.82 131.13L1024.46 158.63L1024.46 213.63L976.82 241.13L929.19 213.63L929.19 158.63zM976.82 296.13L1024.46 323.63L1024.46 378.63L976.82 406.13L929.19 378.63L929.19 323.63zM976.82 461.13L1024.46 488.63L1024.46 543.63L976.82 571.13L929.19 543.63L929.19 488.63zM1072.09 -33.87L1119.72 -6.37L1119.72 48.63L1072.09 76.13L1024.46 48.63L1024.46 -6.37zM1119.72 48.63L1167.36 76.13L1167.36 131.13L1119.72 158.63L1072.09 131.13L1072.09 76.13zM1072.09 131.13L1119.72 158.63L1119.72 213.63L1072.09 241.13L1024.46 213.63L1024.46 158.63zM1119.72 378.63L1167.36 406.13L1167.36 461.13L1119.72 488.63L1072.09 461.13L1072.09 406.13zM1214.99 48.63L1262.62 76.13L1262.62 131.13L1214.99 158.63L1167.36 131.13L1167.36 76.13zM1167.36 296.13L1214.99 323.63L1214.99 378.63L1167.36 406.13L1119.72 378.63L1119.72 323.63zM1262.62 -33.87L1310.25 -6.37L1310.25 48.63L1262.62 76.13L1214.99 48.63L1214.99 -6.37zM1310.25 213.63L1357.89 241.13L1357.89 296.13L1310.25 323.63L1262.62 296.13L1262.62 241.13zM1262.62 296.13L1310.25 323.63L1310.25 378.63L1262.62 406.13L1214.99 378.63L1214.99 323.63zM1262.62 461.13L1310.25 488.63L1310.25 543.63L1262.62 571.13L1214.99 543.63L1214.99 488.63zM1310.25 543.63L1357.89 571.13L1357.89 626.13L1310.25 653.63L1262.62 626.13L1262.62 571.13zM1405.52 213.63L1453.15 241.13L1453.15 296.13L1405.52 323.63L1357.89 296.13L1357.89 241.13zM1357.89 296.13L1405.52 323.63L1405.52 378.63L1357.89 406.13L1310.25 378.63L1310.25 323.63zM1357.89 461.13L1405.52 488.63L1405.52 543.63L1357.89 571.13L1310.25 543.63L1310.25 488.63zM1500.79 48.63L1548.42 76.13L1548.42 131.13L1500.79 158.63L1453.15 131.13L1453.15 76.13zM1453.15 296.13L1500.79 323.63L1500.79 378.63L1453.15 406.13L1405.52 378.63L1405.52 323.63zM1500.79 378.63L1548.42 406.13L1548.42 461.13L1500.79 488.63L1453.15 461.13L1453.15 406.13z" stroke="rgba(12, 80, 2, 0.93)" stroke-width="2"></path></g><defs><mask id="SvgjsMask1300"><rect width="1440" height="560" fill="#ffffff"></rect></mask><radialGradient cx="100%" cy="50%" r="1466.97" gradientUnits="userSpaceOnUse" id="SvgjsRadialGradient1301"><stop stop-color="rgba(12, 66, 6, 1)" offset="0"></stop><stop stop-color="rgba(1, 20, 0, 1)" offset="1"></stop></radialGradient></defs></svg>